<?xml version="1.0" standalone="no"?>
<!DOCTYPE svg PUBLIC "-//W3C//DTD SVG 20010904//EN"
 "http://www.w3.org/TR/2001/REC-SVG-20010904/DTD/svg10.dtd">
<svg version="1.0" xmlns="http://www.w3.org/2000/svg"
 width="512.000000pt" height="512.000000pt" viewBox="0 0 512.000000 512.000000"
 preserveAspectRatio="xMidYMid meet">

<g transform="translate(0.000000,512.000000) scale(0.100000,-0.100000)"
fill="#000000" stroke="none">
<path d="M4092 4970 c-52 -22 -52 -20 -52 -827 0 -731 -1 -749 -21 -793 -45
-100 -138 -160 -247 -160 -108 0 -192 52 -239 148 -28 56 -28 60 -34 297 -5
175 -11 252 -22 285 -54 158 -187 284 -347 325 -85 22 -212 16 -292 -15 -123
-46 -239 -162 -290 -288 l-23 -57 -3 -617 -3 -618 85 0 85 0 3 593 3 592 33
67 c18 36 49 81 69 99 128 112 314 108 432 -10 84 -84 101 -154 101 -432 0
-158 3 -194 19 -242 90 -262 387 -382 633 -256 58 30 143 113 178 174 60 106
61 109 58 940 -3 740 -3 755 -23 774 -24 25 -72 34 -103 21z"/>
<path d="M3817 2279 c-88 -13 -166 -76 -203 -164 -7 -19 -14 -63 -14 -97 0
-150 111 -262 260 -262 182 1 306 164 256 338 -37 127 -164 205 -299 185z"/>
<path d="M1080 1840 l0 -180 -180 0 -180 0 0 -270 0 -270 180 0 180 0 0 -180
0 -180 270 0 270 0 0 180 0 180 180 0 180 0 0 270 0 270 -180 0 -180 0 0 180
0 180 -270 0 -270 0 0 -180z"/>
<path d="M4433 1650 c-137 -28 -226 -167 -201 -312 30 -171 228 -266 387 -184
73 38 141 152 141 236 0 56 -31 132 -73 177 -66 72 -159 102 -254 83z"/>
</g>
</svg>
